<mxfile host="app.diagrams.net" modified="2023-07-13T14:46:29.545Z" agent="Mozilla/5.0 (Windows NT 10.0; Win64; x64) AppleWebKit/537.36 (KHTML, like Gecko) Chrome/114.0.0.0 Safari/537.36" etag="1QLI7iwqoDK1etQXpoHr" version="21.2.9" type="device">
  <diagram name="Halaman-1" id="SpAfCc5kEeheQFjRDJoD">
    <mxGraphModel dx="1080" dy="1775" grid="1" gridSize="10" guides="1" tooltips="1" connect="1" arrows="1" fold="1" page="1" pageScale="1" pageWidth="827" pageHeight="1169" math="0" shadow="0">
      <root>
        <mxCell id="0" />
        <mxCell id="1" parent="0" />
        <mxCell id="uGDM47RKebUJSHJW33SG-2" value="" style="rounded=0;whiteSpace=wrap;html=1;" vertex="1" parent="1">
          <mxGeometry x="330" y="-130" width="330" height="600" as="geometry" />
        </mxCell>
        <mxCell id="uGDM47RKebUJSHJW33SG-4" value="Admin" style="shape=umlActor;verticalLabelPosition=bottom;verticalAlign=top;html=1;outlineConnect=0;" vertex="1" parent="1">
          <mxGeometry x="210" y="125" width="30" height="60" as="geometry" />
        </mxCell>
        <mxCell id="uGDM47RKebUJSHJW33SG-6" value="User" style="shape=umlActor;verticalLabelPosition=bottom;verticalAlign=top;html=1;outlineConnect=0;" vertex="1" parent="1">
          <mxGeometry x="720" y="125" width="30" height="60" as="geometry" />
        </mxCell>
        <mxCell id="uGDM47RKebUJSHJW33SG-16" style="edgeStyle=orthogonalEdgeStyle;rounded=0;orthogonalLoop=1;jettySize=auto;html=1;" edge="1" parent="1" source="uGDM47RKebUJSHJW33SG-7" target="uGDM47RKebUJSHJW33SG-4">
          <mxGeometry relative="1" as="geometry" />
        </mxCell>
        <mxCell id="uGDM47RKebUJSHJW33SG-7" value="Register" style="ellipse;whiteSpace=wrap;html=1;" vertex="1" parent="1">
          <mxGeometry x="450" y="-100" width="90" height="60" as="geometry" />
        </mxCell>
        <mxCell id="uGDM47RKebUJSHJW33SG-17" style="edgeStyle=orthogonalEdgeStyle;rounded=0;orthogonalLoop=1;jettySize=auto;html=1;entryX=0.5;entryY=0;entryDx=0;entryDy=0;entryPerimeter=0;" edge="1" parent="1" source="uGDM47RKebUJSHJW33SG-10" target="uGDM47RKebUJSHJW33SG-4">
          <mxGeometry relative="1" as="geometry" />
        </mxCell>
        <mxCell id="uGDM47RKebUJSHJW33SG-10" value="Login" style="ellipse;whiteSpace=wrap;html=1;" vertex="1" parent="1">
          <mxGeometry x="450" y="-20" width="90" height="60" as="geometry" />
        </mxCell>
        <mxCell id="uGDM47RKebUJSHJW33SG-18" style="edgeStyle=orthogonalEdgeStyle;rounded=0;orthogonalLoop=1;jettySize=auto;html=1;entryX=0.5;entryY=0;entryDx=0;entryDy=0;entryPerimeter=0;" edge="1" parent="1" source="uGDM47RKebUJSHJW33SG-11" target="uGDM47RKebUJSHJW33SG-4">
          <mxGeometry relative="1" as="geometry" />
        </mxCell>
        <mxCell id="uGDM47RKebUJSHJW33SG-11" value="&lt;font style=&quot;font-size: 8px;&quot;&gt;Menambah, Mengubah, Menghapus Category&lt;/font&gt;" style="ellipse;whiteSpace=wrap;html=1;" vertex="1" parent="1">
          <mxGeometry x="450" y="60" width="90" height="60" as="geometry" />
        </mxCell>
        <mxCell id="uGDM47RKebUJSHJW33SG-20" style="edgeStyle=orthogonalEdgeStyle;rounded=0;orthogonalLoop=1;jettySize=auto;html=1;" edge="1" parent="1" source="uGDM47RKebUJSHJW33SG-12">
          <mxGeometry relative="1" as="geometry">
            <mxPoint x="250" y="170" as="targetPoint" />
          </mxGeometry>
        </mxCell>
        <mxCell id="uGDM47RKebUJSHJW33SG-12" value="&lt;font style=&quot;font-size: 8px;&quot;&gt;Menambah, Mengubah, Menghapus Article&lt;/font&gt;" style="ellipse;whiteSpace=wrap;html=1;" vertex="1" parent="1">
          <mxGeometry x="450" y="140" width="90" height="60" as="geometry" />
        </mxCell>
        <mxCell id="uGDM47RKebUJSHJW33SG-21" style="edgeStyle=orthogonalEdgeStyle;rounded=0;orthogonalLoop=1;jettySize=auto;html=1;" edge="1" parent="1" source="uGDM47RKebUJSHJW33SG-13">
          <mxGeometry relative="1" as="geometry">
            <mxPoint x="220" y="210" as="targetPoint" />
          </mxGeometry>
        </mxCell>
        <mxCell id="uGDM47RKebUJSHJW33SG-24" style="edgeStyle=orthogonalEdgeStyle;rounded=0;orthogonalLoop=1;jettySize=auto;html=1;" edge="1" parent="1" source="uGDM47RKebUJSHJW33SG-13">
          <mxGeometry relative="1" as="geometry">
            <mxPoint x="740" y="210" as="targetPoint" />
          </mxGeometry>
        </mxCell>
        <mxCell id="uGDM47RKebUJSHJW33SG-13" value="&lt;font style=&quot;font-size: 8px;&quot;&gt;Melihat Category&lt;/font&gt;" style="ellipse;whiteSpace=wrap;html=1;" vertex="1" parent="1">
          <mxGeometry x="450" y="220" width="90" height="60" as="geometry" />
        </mxCell>
        <mxCell id="uGDM47RKebUJSHJW33SG-22" style="edgeStyle=orthogonalEdgeStyle;rounded=0;orthogonalLoop=1;jettySize=auto;html=1;" edge="1" parent="1" source="uGDM47RKebUJSHJW33SG-14">
          <mxGeometry relative="1" as="geometry">
            <mxPoint x="220" y="210" as="targetPoint" />
          </mxGeometry>
        </mxCell>
        <mxCell id="uGDM47RKebUJSHJW33SG-25" style="edgeStyle=orthogonalEdgeStyle;rounded=0;orthogonalLoop=1;jettySize=auto;html=1;" edge="1" parent="1" source="uGDM47RKebUJSHJW33SG-14">
          <mxGeometry relative="1" as="geometry">
            <mxPoint x="740" y="210" as="targetPoint" />
          </mxGeometry>
        </mxCell>
        <mxCell id="uGDM47RKebUJSHJW33SG-14" value="&lt;font style=&quot;font-size: 8px;&quot;&gt;Melihat Article&lt;/font&gt;" style="ellipse;whiteSpace=wrap;html=1;" vertex="1" parent="1">
          <mxGeometry x="450" y="300" width="90" height="60" as="geometry" />
        </mxCell>
        <mxCell id="uGDM47RKebUJSHJW33SG-23" style="edgeStyle=orthogonalEdgeStyle;rounded=0;orthogonalLoop=1;jettySize=auto;html=1;" edge="1" parent="1" source="uGDM47RKebUJSHJW33SG-15">
          <mxGeometry relative="1" as="geometry">
            <mxPoint x="220" y="210" as="targetPoint" />
          </mxGeometry>
        </mxCell>
        <mxCell id="uGDM47RKebUJSHJW33SG-15" value="&lt;font style=&quot;font-size: 8px;&quot;&gt;Logout&lt;/font&gt;" style="ellipse;whiteSpace=wrap;html=1;" vertex="1" parent="1">
          <mxGeometry x="450" y="380" width="90" height="60" as="geometry" />
        </mxCell>
      </root>
    </mxGraphModel>
  </diagram>
</mxfile>
